<?xml version="1.0" standalone="no"?>
<!DOCTYPE svg PUBLIC "-//W3C//DTD SVG 20010904//EN"
 "http://www.w3.org/TR/2001/REC-SVG-20010904/DTD/svg10.dtd">
<svg version="1.0" xmlns="http://www.w3.org/2000/svg"
 width="394.000000pt" height="356.000000pt" viewBox="0 0 394.000000 356.000000"
 preserveAspectRatio="xMidYMid meet">
<g transform="translate(0.000000,356.000000) scale(0.050000,-0.050000)"
fill="#4876a8" stroke="none">
<path d="M3290 6701 c-300 -46 -452 -235 -466 -576 l-9 -205 230 0 230 0 9
121 c7 98 19 131 63 175 l54 54 704 6 c896 8 915 3 915 -255 l0 -101 233 0
233 0 -11 206 c-15 294 -129 475 -348 554 -87 31 -1656 49 -1837 21z"/>
<path d="M1790 5799 c-90 -27 -261 -186 -297 -278 -41 -101 -51 -4588 -11
-4729 29 -104 177 -259 275 -289 127 -38 3956 -32 4137 6 162 35 379 108 511
172 l95 47 0 896 0 896 -690 0 -690 0 0 -48 c0 -184 285 -452 481 -452 11 0
19 -110 19 -269 l0 -269 -75 -20 c-435 -113 -530 -122 -1345 -122 l-717 0 -43
60 -43 60 52 0 c50 0 51 2 51 150 l0 150 -160 0 -160 0 0 -60 0 -60 -175 0
-175 0 7 160 6 160 129 0 128 0 0 130 0 130 -140 0 -140 0 0 -110 0 -110 -160
0 -160 0 0 150 0 150 -68 0 c-51 0 -70 10 -78 40 -9 35 0 40 68 40 l78 0 0
130 0 130 -140 0 -140 0 0 -120 c0 -146 -47 -170 -69 -35 -190 1179 449 2224
1609 2630 501 175 1279 193 1810 41 282 -81 837 -406 806 -472 -3 -8 -146
-152 -318 -320 l-311 -305 -168 89 c-729 387 -1674 221 -2125 -373 -680 -897
-97 -2092 1058 -2168 204 -14 242 4 170 81 -41 44 -42 60 -42 800 l0 756 938
-7 c1057 -8 986 3 1064 -167 35 -75 37 -156 38 -1183 l0 -1103 85 19 c242 55
436 202 543 414 l52 102 0 970 0 971 -427 0 c-508 0 -529 3 -638 100 l-85 75
-7 217 c-7 234 18 368 70 368 25 0 28 -12 15 -55 -28 -96 -21 -430 10 -488 66
-124 129 -137 649 -137 640 0 627 -9 617 398 -10 379 -13 382 -569 382 -302 0
-355 4 -355 30 0 26 54 30 365 30 l365 0 -5 265 c-16 889 -11 816 -69 940 -68
146 -225 302 -371 371 l-115 54 -2480 3 c-1401 2 -2506 -4 -2540 -14z m4916
-1922 c164 -88 104 -317 -84 -317 -62 0 -88 12 -121 53 -117 148 41 351 205
264z m-4406 -1687 l0 -130 -140 0 -140 0 0 130 0 130 140 0 140 0 0 -130z
m-17 -250 l57 0 0 -150 0 -150 -160 0 -160 0 0 147 c0 174 5 180 118 165 48
-7 113 -12 145 -12z m1037 -545 c0 -24 37 -82 84 -129 l84 -86 400 0 c339 0
404 5 435 32 79 72 204 -41 137 -122 -32 -39 -108 -38 -140 0 -21 25 -95 30
-438 30 l-413 0 -99 87 c-55 48 -120 94 -145 101 -44 14 -53 33 -46 92 11 89
141 84 141 -5z m-324 41 c13 -13 24 -51 24 -85 0 -49 32 -92 175 -236 l174
-175 689 0 c614 0 693 4 726 33 78 71 187 -54 112 -129 -33 -33 -106 -30 -136
6 -21 26 -128 30 -731 30 l-705 0 -188 199 c-103 109 -212 208 -242 219 -91
35 -63 162 36 162 23 0 53 -11 66 -24z m-415 -117 c22 -11 39 -40 39 -64 0
-30 83 -128 255 -300 l254 -255 503 0 c423 0 507 5 528 30 34 41 72 38 119 -9
86 -86 -21 -196 -121 -123 -54 40 -80 42 -562 42 l-507 0 -259 260 c-178 178
-273 260 -304 260 -66 0 -97 70 -57 131 35 54 55 59 112 28z"/>
<path d="M2520 1260 c-24 -15 -25 -23 -5 -43 19 -19 30 -20 49 -1 32 32 -4 69
-44 44z"/>
<path d="M1032 5605 c-261 -20 -318 -164 -244 -621 64 -398 307 -1990 410
-2694 95 -641 114 -599 62 135 -217 3075 -214 2864 -39 2957 38 20 92 41 119
46 38 8 58 33 83 101 l32 91 -162 -4 c-90 -2 -207 -7 -261 -11z"/>
<path d="M544 5061 c-59 -43 -84 -76 -84 -110 0 -44 398 -1861 601 -2746 43
-190 79 -359 79 -375 0 -17 7 -30 16 -30 8 0 16 -16 16 -35 2 -64 113 -607
122 -598 10 10 -59 505 -94 683 -11 55 -83 510 -160 1010 -77 501 -149 964
-160 1030 -10 66 -42 269 -70 450 -136 887 -115 830 -266 721z"/>
<path d="M2593 2887 c-7 -8 -13 -57 -13 -110 l0 -97 120 0 120 0 0 110 0 110
-107 0 c-58 0 -112 -6 -120 -13z"/>
<path d="M2680 2430 c0 -44 9 -50 70 -50 61 0 70 6 70 50 0 44 -9 50 -70 50
-61 0 -70 -6 -70 -50z"/>
<path d="M1283 1730 c0 -33 8 -105 16 -160 l16 -100 1 120 c1 66 -7 138 -16
160 -15 34 -17 31 -17 -20z"/>
<path d="M1332 967 c29 -114 45 -156 48 -127 9 64 -5 128 -33 156 -25 25 -27
22 -15 -29z"/>
</g>
</svg>
